<?xml version="1.0" standalone="no"?>
<!DOCTYPE svg PUBLIC "-//W3C//DTD SVG 20010904//EN"
 "http://www.w3.org/TR/2001/REC-SVG-20010904/DTD/svg10.dtd">
<svg version="1.0" xmlns="http://www.w3.org/2000/svg"
 width="180.000000pt" height="180.000000pt" viewBox="0 0 180.000000 180.000000"
 preserveAspectRatio="xMidYMid meet">
<metadata>
Created by potrace 1.14, written by Peter Selinger 2001-2017
</metadata>
<g transform="translate(0.000000,180.000000) scale(0.100000,-0.100000)"
fill="#000000" stroke="none">
<path d="M848 1745 c-2 -2 -32 -6 -67 -9 -35 -4 -72 -11 -82 -17 -11 -5 -19
-7 -19 -4 0 7 -96 -31 -167 -67 -35 -17 -63 -35 -63 -40 0 -4 -5 -8 -11 -8
-22 0 -181 -144 -171 -155 3 -3 1 -5 -5 -5 -33 0 -146 -212 -179 -335 -20 -74
-26 -272 -11 -350 5 -22 9 -48 10 -57 1 -10 5 -18 10 -18 4 0 6 -4 2 -9 -6
-10 68 -190 82 -200 4 -3 14 -18 21 -32 16 -30 72 -97 123 -148 119 -118 284
-200 465 -232 119 -21 307 0 414 47 86 37 130 60 130 67 0 4 5 7 12 7 25 0
198 144 198 166 0 6 6 14 14 17 27 11 126 177 141 239 4 16 11 28 16 28 5 0 8
3 7 8 -1 4 4 32 10 62 7 30 15 66 17 80 8 36 8 199 0 240 -14 84 -38 158 -76
241 -23 49 -46 89 -50 89 -5 0 -9 5 -9 11 0 32 -190 229 -220 229 -6 0 -10 5
-10 10 0 6 -6 10 -14 10 -8 0 -16 4 -18 8 -8 19 -185 94 -250 106 -13 2 -34 7
-48 11 -25 6 -197 15 -202 10z m202 -99 c65 -10 240 -81 240 -97 0 -5 7 -9 15
-9 29 0 181 -144 231 -220 57 -87 107 -215 119 -305 13 -99 4 -259 -16 -297
-6 -10 -7 -18 -5 -18 6 0 -17 -67 -41 -118 -23 -50 -75 -130 -112 -172 l-30
-35 -1 169 c0 163 -1 170 -26 217 -41 75 -75 87 -242 87 -75 0 -144 1 -153 1
-9 1 -21 12 -27 26 -11 23 -9 29 14 50 15 14 31 25 35 25 21 0 99 98 116 145
16 47 8 132 -17 184 -20 41 -114 142 -129 138 -3 0 -16 4 -29 11 -40 23 -153
20 -176 -4 -9 -8 -16 -13 -16 -9 0 10 -63 -37 -93 -70 -32 -35 -70 -111 -62
-125 3 -5 0 -12 -6 -15 -12 -8 -10 -84 4 -102 5 -7 7 -13 3 -13 -4 0 3 -17 14
-37 21 -41 54 -83 65 -83 3 0 17 -12 31 -27 31 -33 42 -72 23 -84 -8 -5 -66
-9 -129 -9 -137 0 -174 -9 -213 -51 -49 -54 -55 -91 -56 -321 -1 -90 -4 -116
-14 -112 -17 7 -107 133 -139 196 -25 49 -41 94 -66 189 -22 85 -11 265 24
384 48 161 202 351 343 422 20 10 42 22 49 27 27 19 144 55 200 62 31 3 59 8
61 10 4 4 165 -4 211 -10z m-436 -1338 c-3 -111 -2 -107 -23 -101 -16 4 -19
16 -20 84 -2 90 2 103 28 90 14 -8 17 -22 15 -73z m643 -1 c1 -67 -1 -78 -18
-87 -18 -10 -19 -7 -19 73 0 46 3 87 7 91 18 18 28 -7 30 -77z"/>
</g>
</svg>
